<svg xmlns="http://www.w3.org/2000/svg" viewBox="0 0 159.52 148.09"><defs><style>.a{fill:none;stroke:#fff;stroke-miterlimit:10;}.b{fill:#fff;}</style></defs><title>logo_jk</title><path class="a" d="M31.16,63.06S39.33,24.25,76.35,24s45.19,26.55,48.51,39.57"/><path class="b" d="M72.78,50.75c3.21,0,3.22-5,0-5s-3.23,5,0,5Z"/><path class="b" d="M64.78,53.81C63.44,51,62.12,47.76,64.24,45c2-2.57,5.62-3.3,8.69-3.25,2.87,0,5.89,1.22,7.36,3.83,1.59,2.84.28,6-1,8.69-.14.31,1.25.19,1.44-.22,1.16-2.48,2.41-5.38,1.34-8.12A7.77,7.77,0,0,0,77,41.55a15.87,15.87,0,0,0-8,.06,10.2,10.2,0,0,0-6.3,3.79c-1.91,2.85-.68,6,.67,8.8.2.41,1.6-.07,1.45-.39Z"/><path class="b" d="M34.53,58.65c23.12-5,47-5.3,70.5-3.13,6,.55,12.39.95,17.55,4.35.38.26,1.67-.32,1.35-.54-4.43-2.92-9.72-3.69-14.9-4.22q-9-.91-18-1.33a241.27,241.27,0,0,0-36.56,1A193.6,193.6,0,0,0,34.36,58c-.87.19-.7.8.17.62Z"/><path class="b" d="M18,68.38l23.8-6.44c.88-.24.63-1.2-.26-1l-23.8,6.44c-.89.24-.64,1.2.26,1Z"/><path class="b" d="M42.29,62.15c13.38-.71,26.76-1.55,40.16-1.6a271.63,271.63,0,0,1,39.69,2.75c2,.28,3.9.57,5.85.9a12.84,12.84,0,0,1,4.57,1.43c2.64,1.59,4.38,4.31,6,6.85.26.41,1.67-.06,1.34-.57a23.36,23.36,0,0,0-5.16-6.28c-2.3-1.76-5-2.1-7.82-2.55q-10.07-1.59-20.23-2.44a329.82,329.82,0,0,0-41.59-.46c-7.55.32-15.09.75-22.63,1.15-.73,0-1.2.88-.19.82Z"/><path class="b" d="M17.41,68.73c.32,0,1.65-.61.94-.61-.31,0-1.64.61-.94.61Z"/><path class="b" d="M17.7,68.93a64.49,64.49,0,0,0,8.43,7.67c.21.16.71,0,.93-.1s.63-.24.43-.39a64.4,64.4,0,0,1-8.42-7.66c-.24-.26-1.57.26-1.37.48Z"/><path class="b" d="M138.18,72.55a4.59,4.59,0,0,0,1.33,1.23.71.71,0,0,0,.38.08,1.62,1.62,0,0,0,.57-.12.9.9,0,0,0,.39-.25c.05-.06.12-.18,0-.24A4.59,4.59,0,0,1,139.53,72a.26.26,0,0,0-.15-.07.81.81,0,0,0-.22,0,1.57,1.57,0,0,0-.57.12.86.86,0,0,0-.4.24l-.05.09a.12.12,0,0,0,0,.15Z"/><path class="b" d="M138.1,71.44a6.24,6.24,0,0,0,1.1,2.94l.76-.72c-3.61.61-7.6,1.38-10.17,4.23-.21.23-.16.47.15.56a1.16,1.16,0,0,0,1-.27c2.24-2.48,5.67-3.12,8.82-3.65.28,0,1.05-.31.76-.73a5.83,5.83,0,0,1-1-2.75c-.06-.53-1.51-.2-1.45.39Z"/><path class="b" d="M27,76.9A78.8,78.8,0,0,1,43,71.07c.15,0,.73-.23.64-.48s-.63-.14-.8-.09a82.82,82.82,0,0,0-16.76,6.1c-.24.12-.37.29-.15.46s.82-.06,1-.16Z"/><path class="b" d="M43.36,71.09a308.76,308.76,0,0,1,49.11-2c.3,0,1.64-.54,1-.56a310.29,310.29,0,0,0-49.42,2c-.36,0-1.57.67-.64.56Z"/><path class="b" d="M90.65,69.36q11.17.28,22.32,1c1.8.11,3.6.24,5.39.38a13.78,13.78,0,0,1,5.24,1.07c2.7,1.37,4.39,4.12,5.93,6.62.33.52,1.72,0,1.33-.63-1.53-2.48-3.2-5.13-5.8-6.62-3-1.69-6.8-1.51-10.1-1.73q-11.88-.83-23.79-1.12c-.67,0-1.49,1-.52,1Z"/><path class="b" d="M28.56,75.64l.31,11.74c0,.73,1.48.48,1.46-.13L30,75.51c0-.72-1.47-.47-1.46.13Z"/><path class="b" d="M131.18,77.56a3,3,0,0,0-2.74,1,3.87,3.87,0,0,0-.74,3,61.9,61.9,0,0,1,.23,8.17c0,.6,1.42.31,1.45-.18a47.82,47.82,0,0,0,0-6.22,21,21,0,0,1-.22-3.06c0-.54.35-2,1.16-1.89a1.27,1.27,0,0,0,1-.27c.21-.21.18-.47-.14-.52Z"/><path class="b" d="M36.79,79.34a137.9,137.9,0,0,1-.24,13.79c0,.14,1.42,0,1.45-.39A137.9,137.9,0,0,0,38.24,79c0-.18-1.46,0-1.45.39Z"/><path class="b" d="M49.31,76.92q-.45,7-.21,14c0,.7,1.48.43,1.46-.14-.16-4.68-.09-9.37.21-14,0-.68-1.42-.44-1.46.14Z"/><path class="b" d="M61.07,76.53V91.85c0,.27,1.45.06,1.45-.39V76.15c0-.28-1.45-.06-1.45.38Z"/><path class="b" d="M82.85,77.19,82.49,92c0,.63,1.44.35,1.45-.17L84.3,77c0-.63-1.44-.35-1.45.17Z"/><path class="b" d="M97.07,78.07V92.36c0,.19,1.45,0,1.45-.38V77.68c0-.18-1.45,0-1.45.39Z"/><path class="b" d="M112.45,78.69q-.36,6.38-.34,12.76c0,.79,1.47.59,1.47-.1q0-6.37.34-12.76c0-.77-1.43-.59-1.47.1Z"/><path class="b" d="M38,80.07c.66-2.23,2.8-3.62,4.84-4.47s4.8-.81,6.21,1.3c.24.35,1.65-.11,1.36-.54-1.7-2.53-5.17-2.36-7.7-1.43s-5.35,2.63-6.16,5.35c-.13.44,1.31.24,1.45-.21Z"/><path class="b" d="M62.19,77.11c2.8-2.68,6.78-3.35,10.49-3.8a12.32,12.32,0,0,1,5.79.31A9.79,9.79,0,0,1,83,77c.37.5,1.76,0,1.33-.63a10.8,10.8,0,0,0-4.86-3.65,13.63,13.63,0,0,0-6.65-.44c-4.25.51-8.64,1.36-11.83,4.41-.65.62.76.82,1.2.4Z"/><path class="b" d="M98.44,78.39c1.61-1.93,3.8-3.86,6.48-3.74s5,2,7,3.69c.54.44,1.78-.32,1.11-.87-2.39-2-5.08-4-8.32-4s-5.66,2.13-7.55,4.4c-.59.72.78,1,1.23.48Z"/><path class="b" d="M37.63,94.05a49.68,49.68,0,0,1,10.8-1.94c.27,0,.78-.2.82-.53s-.4-.38-.64-.36a51.44,51.44,0,0,0-11.2,2c-.23.07-.7.28-.61.6s.61.28.83.22Z"/><path class="b" d="M49.83,91.92a40,40,0,0,0,8.55.16c3.18-.14,6.36-.21,9.55-.23q9.42,0,18.84.63c.52,0,1.55-.71.58-.78-6.11-.42-12.23-.64-18.36-.62-3,0-6,.07-9.06.18a44.29,44.29,0,0,1-9.21-.09c-.43-.07-1.69.61-.89.75Z"/><path class="b" d="M87.36,92.05q12.19,1,24.42,1.44c.86,0,1.09-1.09.12-1.12q-12-.42-24.06-1.43c-.74-.06-1.46,1-.48,1.11Z"/><path class="b" d="M38.09,97.1A37,37,0,0,1,49.2,94.49c.27,0,.78-.19.82-.51s-.4-.37-.63-.35A39.61,39.61,0,0,0,37.5,96.44c-.22.09-.57.36-.37.62s.73.13,1,0Z"/><path class="b" d="M49.78,94.24l37.78.22c.57,0,1.53-.85.56-.86l-37.79-.21c-.57,0-1.53.85-.55.85Z"/><path class="b" d="M87.28,94.64A76,76,0,0,1,111.1,96.2c.72.16,1.45-.85.5-1.06a77.14,77.14,0,0,0-24.19-1.57c-.82.07-1.12,1.16-.13,1.07Z"/><path class="b" d="M3.65,106a68.17,68.17,0,0,1,10.84-2.51c.27,0,.78-.19.82-.52s-.4-.39-.64-.35a72.07,72.07,0,0,0-11.24,2.58c-.22.08-.7.27-.61.6s.61.27.83.2Z"/><path class="b" d="M15.52,104c4.52-.15,9.05-.36,13.58-.43a39.61,39.61,0,0,1,13.61,2.14c.56.19,1.71-.62.86-.91a40.94,40.94,0,0,0-13.52-2.21c-4.79,0-9.59.29-14.38.44-.79,0-1.15,1-.15,1Z"/><path class="b" d="M3.25,105.43a65.2,65.2,0,0,0,7.33,3.31,1,1,0,0,0,1-.28.44.44,0,0,0-.19-.72,62.66,62.66,0,0,1-7-3.16,1,1,0,0,0-1,.08c-.21.17-.4.59-.07.77Z"/><path class="b" d="M10.68,109.09l-.36,12.26c0,.7,1.44.45,1.46-.14L12.14,109c0-.7-1.44-.46-1.46.14Z"/><path class="b" d="M37.07,108.7v14.56c0,.35,1.45.1,1.45-.39V108.32c0-.35-1.45-.11-1.45.38Z"/><path class="b" d="M11.21,124.91a9.9,9.9,0,0,1,.24-3.21c.08-.32-.43-.36-.63-.33s-.74.18-.82.5a10.69,10.69,0,0,0-.24,3.43c0,.12.2.19.28.21a1.46,1.46,0,0,0,.55,0c.25-.08.65-.25.62-.57Z"/><path class="b" d="M12.1,122.28l4.09-1.78c.28-.12.54-.48.34-.77s-.7-.25-1-.12l-4.09,1.78c-.28.12-.54.48-.34.77a.84.84,0,0,0,1,.12Z"/><path class="b" d="M16,120.86l13.54-1.23c.78-.07,1.14-1.08.14-1l-13.53,1.22c-.79.08-1.14,1.09-.15,1Z"/><path class="b" d="M29.41,119.68a27.26,27.26,0,0,1,8.17,1.71,1.47,1.47,0,0,0,.92-.11c.06,0,.65-.29.45-.37a28.42,28.42,0,0,0-8.59-1.78,1.93,1.93,0,0,0-1,.27c-.23.15-.21.27.07.28Z"/><path class="b" d="M19.6,117.71l5.07-.93c.3-.06.76-.19.82-.54s-.41-.43-.65-.39l-5.08.93c-.29.06-.75.19-.81.54s.41.43.65.39Z"/><path class="b" d="M20.77,116.72c-.28-1.33-.64-2.66-.81-4a4.47,4.47,0,0,1,.45-3.07,2.2,2.2,0,0,1,.5-.51,1,1,0,0,1,.17-.1c-.11.06-.17,0,0,0a2.93,2.93,0,0,1,1.35.39A3.8,3.8,0,0,1,24.27,112a10.9,10.9,0,0,1-.29,4.54c0,.16.72,0,.78,0s.62-.15.67-.39a10.85,10.85,0,0,0,.26-4.67,4,4,0,0,0-2.19-2.7,4,4,0,0,0-3.63.29,3.28,3.28,0,0,0-1.43,3,25.84,25.84,0,0,0,.88,5c.06.25,1.52-.09,1.45-.39Z"/><path class="b" d="M29.19,117.54l2.3.27a1.42,1.42,0,0,0,.54,0,1.09,1.09,0,0,0,.48-.24c.08-.08.19-.2.14-.32a.33.33,0,0,0-.28-.2l-2.29-.27a1.4,1.4,0,0,0-.54,0,1.14,1.14,0,0,0-.49.25c-.08.07-.19.19-.14.31a.32.32,0,0,0,.28.2Z"/><path class="b" d="M29.86,116.62c.12-1.42-.41-2.78-.33-4.19a3.53,3.53,0,0,1,.36-1.39c.15-.3.42-.72.79-.78.57-.1.52,1,.54,1.31l.19,2.23.39,4.62c.05.64,1.5.3,1.44-.38l-.35-4.21-.18-2.15a4.26,4.26,0,0,0-.3-1.81c-.61-1.06-2.24-.69-3-.06a3.72,3.72,0,0,0-1.3,2.57c-.15,1.46.43,2.89.31,4.36-.06.73,1.41.52,1.47-.12Z"/><path class="b" d="M13.22,112l1.8-1-1.15.06a13.92,13.92,0,0,1,.59,4.72,4.29,4.29,0,0,1-.41,2.08,1.3,1.3,0,0,1-.57.59.57.57,0,0,1-.43-.11,1.19,1.19,0,0,0-.94,0c-.08,0-.66.31-.42.46a2.73,2.73,0,0,0,2.6-.11,2.79,2.79,0,0,0,1.51-2,12.43,12.43,0,0,0,.07-2.86,10.6,10.6,0,0,0-.55-3.21c-.12-.34-1,0-1.15.06l-1.8,1c-.18.1-.45.3-.17.44a1.46,1.46,0,0,0,1-.17Z"/><path class="b" d="M13.11,97.29a7.74,7.74,0,0,0-1.76,3.18c-.08.27.46.21.59.18a1.84,1.84,0,0,0,.55-.17c.09-.06.26-.13.29-.25a7.45,7.45,0,0,1,1.65-3c.22-.24-.19-.29-.35-.28a1.55,1.55,0,0,0-1,.36Z"/><path class="b" d="M12.44,101a36.5,36.5,0,0,1,23.12,0c.65.21,1.7-.72.83-1a38.4,38.4,0,0,0-24.23,0c-.87.29-.61,1.34.28,1Z"/><path class="b" d="M13.93,98.25a40.11,40.11,0,0,1,12.79-1.63,40.61,40.61,0,0,1,5.93.66c1,.18,2.68.3,3.48.94a3.15,3.15,0,0,1,.83,2.3c0,.34,1.48.07,1.44-.38a3.36,3.36,0,0,0-.8-2.33,6,6,0,0,0-2.81-1,41.86,41.86,0,0,0-7.15-.9A43.62,43.62,0,0,0,13.78,97.7c-.84.24-.71.8.15.55Z"/><path class="b" d="M12.56,100.06a5.29,5.29,0,0,0-2.09,3.41c-.05.34.4.43.65.4s.75-.2.81-.55a4.22,4.22,0,0,1,.21-.85c0-.08-.05.11,0,0a.36.36,0,0,1,0-.09,1.54,1.54,0,0,1,.08-.19l.21-.4c.08-.13.16-.24.24-.36s0,0,0,0l.08-.09c0-.06.09-.11.13-.16s.21-.22.32-.33.1-.1.16-.14-.08.07,0,0l.11-.09a.59.59,0,0,0,.27-.35.3.3,0,0,0-.17-.31,1,1,0,0,0-1,.11Z"/><path class="b" d="M36.85,100.77l1.46,2.6c.13.22.6.11.79,0a1.43,1.43,0,0,0,.49-.21c.06,0,.22-.15.17-.23l-1.46-2.6c-.13-.23-.6-.11-.79,0a1.26,1.26,0,0,0-.49.21c-.06,0-.21.14-.17.23Z"/><path class="b" d="M14.46,97.44c1.15-5.12,5.75-7.45,10.66-7.66,2.53-.11,4.95.27,6.82,2.11a20.93,20.93,0,0,1,4.19,6.32c.27.62,1.7.19,1.45-.39a20.14,20.14,0,0,0-4.94-7.14c-2.17-1.84-5-2.06-7.76-1.89-5.45.32-10.61,3.12-11.88,8.77-.16.68,1.32.49,1.46-.12Z"/><path class="b" d="M107.11,102.12a6.91,6.91,0,0,0-3.29,2.08.44.44,0,0,0,.2.72,1,1,0,0,0,1-.28l.28-.3.07-.06c.06-.06,0,0,0,0a.93.93,0,0,0,.15-.13,5.12,5.12,0,0,1,.66-.49s.11-.07,0,0,0,0,0,0l.18-.1.36-.18.19-.08.1,0h0l.09,0,.22-.07a.89.89,0,0,0,.47-.29.45.45,0,0,0,.12-.41c-.12-.34-.56-.4-.86-.32Z"/><path class="b" d="M106.75,102.3l-.1.07a.51.51,0,0,0-.17.68c.5.79,1.76.52,2.55.51,1.39,0,2.78-.1,4.16-.19,3-.21,5.89-.53,8.83-.77,5.87-.48,11.84-.61,17.5,1.29.66.22,1.7-.73.83-1-5.14-1.73-10.54-1.89-15.91-1.56-2.78.18-5.56.47-8.35.72-1.39.12-2.78.23-4.17.31-.7,0-1.39.07-2.09.08-.34,0-1.86.24-2,0l-.17.68.09-.07c.79-.58-.37-1.16-1-.71Z"/><path class="b" d="M108.27,102.65c-.46-3.56,4.29-3.72,6.72-4,2.81-.29,5.63-.39,8.45-.41s5.66,0,8.47.11,4.62,1.69,6.39,3.87c.23.29,1.6-.2,1.36-.5a12,12,0,0,0-3.26-3.13,9.17,9.17,0,0,0-4.23-.89c-3.51-.1-7-.14-10.53,0a58.08,58.08,0,0,0-10.28,1c-2.16.46-4.88,1.75-4.54,4.4,0,.31,1.5,0,1.45-.39Z"/><path class="b" d="M110.92,99.27c.59-2.4,1.27-5.19,3.22-6.88a10.19,10.19,0,0,1,4.21-1.79,35.64,35.64,0,0,1,5.21-1.06c3-.33,5.91-.05,8.24,2a12.57,12.57,0,0,1,3.67,6.7c.16.71,1.62.33,1.45-.39a13.24,13.24,0,0,0-4.41-7.52c-2.68-2.14-6-2.33-9.32-1.91a41.21,41.21,0,0,0-5.59,1.2,10.92,10.92,0,0,0-4.44,2c-2.24,1.94-3,4.94-3.71,7.7-.18.74,1.3.59,1.47-.09Z"/><path class="b" d="M111.58,97.26c1.8-.81,3.85-.66,5.78-.68l5.62-.06,5.39-.06,2.7,0a4.57,4.57,0,0,1,2.71.4c.4.28,1.73-.31,1.15-.71-1.39-.94-3.53-.53-5.1-.51l-6.74.07-6.75.07a13.31,13.31,0,0,0-5.34.88c-.91.42-.08.93.58.63Z"/><path class="b" d="M138.51,102.42l1,1.28a.59.59,0,0,0,.4.16,1.21,1.21,0,0,0,.57-.11.69.69,0,0,0,.38-.31.29.29,0,0,0,0-.34l-1-1.28a.56.56,0,0,0-.4-.17,1.26,1.26,0,0,0-.57.11.77.77,0,0,0-.38.31.3.3,0,0,0,0,.35Z"/><path class="b" d="M104.42,104.11a3.31,3.31,0,0,0-1.71,2.09.36.36,0,0,0,.17.35.8.8,0,0,0,.5.11c1.34-.16,2.68-.38,4-.65.28-.06.68-.35.59-.69s-.57-.35-.85-.29l-.95.19-.44.07-.1,0-.25,0c-.63.1-1.25.19-1.88.27l.67.46s0-.08,0,0a.42.42,0,0,0,0-.1,1,1,0,0,1,.1-.21,1.28,1.28,0,0,1,.11-.2s0,0,0,0l.09-.11.15-.17s.1-.1,0,0,0,0,0,0A1.24,1.24,0,0,1,105,105s.12-.08,0,0l.07,0c.25-.13.56-.44.35-.73a.84.84,0,0,0-1-.11Z"/><path class="b" d="M39.11,107.86a5.53,5.53,0,0,1,4.29-1.42,1,1,0,0,0,1-.42c.17-.31-.14-.49-.42-.52a8,8,0,0,0-6,2,.35.35,0,0,0,.16.61,1.11,1.11,0,0,0,1-.27Z"/><path class="b" d="M108.28,105.26q.21,8.43-.25,16.85c0,.68,1.42.43,1.45-.14q.48-8.41.26-16.85c0-.69-1.48-.41-1.46.14Z"/><path class="b" d="M136.15,107q-.17,8.29.11,16.6c0,.74,1.49.51,1.46-.12q-.27-8.3-.1-16.6c0-.74-1.45-.52-1.47.12Z"/><path class="b" d="M137,107.5a7.16,7.16,0,0,1,1.84-1.35s.1-.05,0,0l.13-.06.27-.12.28-.11.14,0s.1,0,0,0l.6-.17.15,0c.12,0-.11,0,0,0l.33,0c.26,0,.75-.17.82-.48s-.45-.3-.61-.28a9.32,9.32,0,0,0-5.36,2.72c-.24.26.21.39.38.4a1.34,1.34,0,0,0,1-.39Z"/><path class="b" d="M137,109.48l3-.93a1.32,1.32,0,0,0,.49-.24.37.37,0,0,0,.14-.32c-.08-.3-.62-.24-.82-.17l-3,.92a1.11,1.11,0,0,0-.48.25c-.08.07-.18.19-.15.31.08.3.63.24.83.18Z"/><path class="b" d="M140,108.67l-.09,0c-.14,0-.17,0-.09,0-.13,0-.16,0-.09,0l-.11,0,.07,0-.05,0,.08.07c-.06-.06-.07-.07,0,0a.1.1,0,0,1,0,0s0,.07.07.1,0,0,0,0l0,.07,0,.11s0,0,0,.08,0-.09,0,0a.45.45,0,0,1,0,.11c0,.06,0,.05,0,0a.21.21,0,0,1,0,.07l0,0c0,.06,0,0,0,0s-.06.09-.08.12.09-.07,0,0l-.12.09c-.15.1.12-.06,0,0l-.11.06-.09,0c-.07,0,0,0,.07,0-.1,0-.2.07-.3.09s-.44.09-.66.13a3.56,3.56,0,0,0-1.57.61.46.46,0,0,0-.07.76.94.94,0,0,0,1-.09l.06,0c.06-.05,0,0,0,0s.1-.06.15-.08l.07,0,.09,0c.21-.06.43-.1.65-.14a4.77,4.77,0,0,0,1.29-.37,2.07,2.07,0,0,0,1.06-1,1.26,1.26,0,0,0-.17-1.24,1.38,1.38,0,0,0-1.7-.35c-.25.11-.56.48-.34.75a.84.84,0,0,0,1,.12Z"/><path class="b" d="M140.22,111.29a20.12,20.12,0,0,1,3.37,2.88.94.94,0,0,0,1,0c.19-.09.61-.38.37-.64a21.65,21.65,0,0,0-3.57-3,.79.79,0,0,0-.48-.06,1.1,1.1,0,0,0-.55.19c-.23.16-.4.42-.11.62Z"/><path class="b" d="M145.09,114.53c-2,1.37-4,2.7-5.94,4.1a2.19,2.19,0,0,0-.84.92,4.6,4.6,0,0,0-.13,1.48l-.11,3.76c0,.24,1.43,0,1.45-.39l.09-3.37a7,7,0,0,1,.11-1.65c.14-.48.6-.73,1-1l5.5-3.79c.23-.16.18-.31-.09-.34a1.8,1.8,0,0,0-1,.28Z"/><path class="b" d="M64,105.89a105.47,105.47,0,0,0,.69,11.24c0,.36,1.5.06,1.44-.39a108.12,108.12,0,0,1-.68-11.23c0-.32-1.45-.09-1.45.38Z"/><path class="b" d="M50.91,110.4a27.36,27.36,0,0,1,6.14-.3l6.47,0c.81,0,1.12-1,.13-1l-6.72,0a28.06,28.06,0,0,0-6.28.36c-.9.22-.64,1.19.26,1Z"/><path class="b" d="M109.17,120.67c2.08-.21,4-1,6-1.34a40.48,40.48,0,0,1,6.61-.24l6.65,0c2,0,4,0,5.69,1.13.4.26,1.74-.34,1.15-.71a9.86,9.86,0,0,0-5.11-1.25c-2.44-.06-4.89,0-7.33,0a61.51,61.51,0,0,0-6.79.16c-2.29.27-4.43,1.2-6.72,1.43-.72.08-1.2.92-.2.82Z"/><path class="b" d="M118.69,116.5h4.59a1.42,1.42,0,0,0,1-.36c.22-.26-.2-.3-.36-.3h-4.6a1.42,1.42,0,0,0-1,.36c-.22.26.19.3.36.3Z"/><path class="b" d="M119.76,115.82c-1-1.73-1.93-4.2-.73-6.06a2.38,2.38,0,0,1,2.25-1.15c1.22.21,1.08,1.75,1.12,2.68l.24,4.56c0,.55,1.48.24,1.44-.39l-.24-4.8a4.59,4.59,0,0,0-.33-2,2,2,0,0,0-1.45-1,4.53,4.53,0,0,0-3.77,1.18,4.27,4.27,0,0,0-1.27,3.31,9.48,9.48,0,0,0,1.4,4.21c.27.48,1.67,0,1.34-.6Z"/><path class="b" d="M128.89,117.24h4.6a.8.8,0,0,0,.79-.61c0-.38-.38-.51-.68-.51H129a.8.8,0,0,0-.79.61c0,.38.38.51.68.51Z"/><path class="b" d="M129.13,116.73a12.13,12.13,0,0,1-.12-4.91,4,4,0,0,1,2-2.68c.16-.07.43-.2.59-.11s.28.6.34.79a18,18,0,0,1,.51,2.29,16.56,16.56,0,0,1,0,4.87c-.1.71,1.37.5,1.46-.12a17.46,17.46,0,0,0,.07-4.51,15.77,15.77,0,0,0-.39-2.16,4,4,0,0,0-.7-1.82c-.9-.94-2.71-.08-3.52.6a5.58,5.58,0,0,0-1.84,3,12.87,12.87,0,0,0,.13,5.17c.1.64,1.56.28,1.45-.39Z"/><path class="b" d="M110.92,118.08l2.79-.59a1.18,1.18,0,0,0,.49-.24c.07-.06.18-.18.14-.29-.07-.3-.63-.18-.81-.15l-2.79.59a1.32,1.32,0,0,0-.49.24c-.07.06-.18.18-.15.29.08.3.63.19.82.15Z"/><path class="b" d="M112.06,117.13c.12-1.37-.14-2.74,0-4.1a3.51,3.51,0,0,1,1.23-2.56c.08,0,.24-.18.34-.16s.26.36.3.5c.18.66.31,1.34.43,2a26.6,26.6,0,0,1,.36,4.18c0,.73,1.47.49,1.46-.13a26.46,26.46,0,0,0-.29-3.88q-.14-1-.36-1.92a2.44,2.44,0,0,0-.62-1.47c-.92-.77-2.36,0-3.08.69a4.79,4.79,0,0,0-1.21,2.66c-.2,1.43.1,2.87,0,4.3-.06.72,1.41.5,1.46-.12Z"/><path class="b" d="M64.2,25.26c-.12-.6-.63-4.35,1.16-3.37.74.4.63,1.95.57,2.6l1.45-.29c-.26-1.08.29-3.06,1.91-2.52a2.39,2.39,0,0,1,1.5,2.07l1.45-.38c-.11-.86.32-2.52,1.57-2.08a1.74,1.74,0,0,1,.93,2.1l1.45-.19c.14-.83.54-1.89,1.51-1.88a1.5,1.5,0,0,1,1.38,1.86L80.53,23c0-.91.94-2.24,1.94-1.42a1.91,1.91,0,0,1,.67,1.8l1.45-.19c.09-1,1-2.08,2-1.19a2,2,0,0,1,.64,1.82l1.45-.29c-.16-.68.15-1.75,1.36-1.1a1.7,1.7,0,0,1,.56.76,2.89,2.89,0,0,1,.12,1.88c-.12.51,1.33.29,1.45-.19.37-1.56-.34-3.43-2.13-3.53-1.39-.08-3.18,1-2.81,2.56.11.48,1.39.12,1.44-.28.49-3.68-5.26-3.61-5.56-.25,0,.56,1.38.28,1.45-.19.55-3.68-5.37-3.43-5.51,0,0,.58,1.35.27,1.45-.19a2.32,2.32,0,0,0-2.69-2.58,3.56,3.56,0,0,0-3.1,3c-.09.55,1.32.25,1.45-.19a2.33,2.33,0,0,0-2.77-2.79,3,3,0,0,0-2.63,3.34c.06.47,1.51.14,1.45-.38-.45-4.18-7.27-2.81-6.31,1.22.11.47,1.41.12,1.45-.29.15-1.64-.27-3.74-2.39-3.41-2.46.39-2.64,2.75-2.24,4.75.1.48,1.55.12,1.45-.38Z"/><path class="b" d="M92.42,23.79v0a1,1,0,0,1,.08-.39s.06-.12,0-.06,0,0,0-.06a.76.76,0,0,1,.11-.14c.06-.08,0,0,0,0l.08-.07.09-.07c.08-.07-.13.08,0,0l.08,0c.11-.06-.17.07,0,0l.1,0s-.22.06-.07,0h0c.15,0-.1,0,0,0H93c-.14,0-.1,0,0,0L93,23c.1,0-.11-.05,0,0l.1,0,.09,0s.09.07,0,0l.17.14a1.35,1.35,0,0,1,.26.32l0-.09a1.93,1.93,0,0,1,.27,1v-.1a2.08,2.08,0,0,1-.07.5.92.92,0,0,1-.09.23.14.14,0,0,1,0,.06c0-.05,0-.06,0,0a.41.41,0,0,1-.07.11c-.18.28.16.4.39.39a1.51,1.51,0,0,0,.56-.11.83.83,0,0,0,.39-.27,2.06,2.06,0,0,0-.13-2.5c-.82-.92-2.35-.61-3.21.07A1.57,1.57,0,0,0,91,24.18c0,.11.19.16.27.18a1.23,1.23,0,0,0,.54,0c.23-.07.66-.22.63-.53Z"/><path class="b" d="M72,20.6c-.46-.79.83-1.3,1.31-1.6a6.88,6.88,0,0,0,1.44-1.36,4.7,4.7,0,0,1,3.9-1.36,12.19,12.19,0,0,1,2.09.17c.86.15,1.29.79,1.86,1.38a12.07,12.07,0,0,0,3.61,2.51c.64.29,1.67-.63.82-1a10.51,10.51,0,0,1-2.48-1.57,23.9,23.9,0,0,0-2-1.92A5.22,5.22,0,0,0,80,15.22a14,14,0,0,0-2.67,0,6.3,6.3,0,0,0-2.33.7,8.41,8.41,0,0,0-2,1.77c-.93,1-3.45,1.72-2.4,3.55.35.6,1.72,0,1.33-.65Z"/><path class="b" d="M76.06,15.47a2,2,0,0,1-1.61-1.41l-1,.48,5.94-.45,1.41-.1A3.75,3.75,0,0,1,82,14a.87.87,0,0,1,.7.65,1,1,0,0,1,0,.42c-.14.48-.41,0,.61,0a2,2,0,0,0-1,.27c-.2.14-.22.31.08.31.78,0,1.86-.33,1.8-1.28s-1.37-1.07-2.12-1c-2.68.12-5.35.4-8,.6-.15,0-1.13.19-1,.48a2.37,2.37,0,0,0,2.12,1.61,1.75,1.75,0,0,0,1-.28c.23-.16.2-.28-.08-.31Z"/><path class="b" d="M76.91,13.57c-.6-.29-1.37-.69-1.57-1.38a1,1,0,0,1,.17-.93.73.73,0,0,1,.27-.22.24.24,0,0,1,.11,0,12.13,12.13,0,0,1,2.41,0l3.14,0L81.19,11a3.06,3.06,0,0,1-.2,1.69c-.1.22.49.12.57.1s.75-.13.85-.37a3.22,3.22,0,0,0,.23-1.81c0-.08-.22-.08-.25-.08l-3.8-.06a9.31,9.31,0,0,0-3.16.29c-.72.24-1.58.67-1.59,1.55s1,1.46,1.7,1.79a1.42,1.42,0,0,0,.93-.1c.06,0,.65-.28.44-.38Z"/><path class="b" d="M76.67,10.29c-.18.05.06,0,.07,0s0,0,0,0-.18-.14-.23-.23a.7.7,0,0,1-.06-.6,1,1,0,0,1,1-.62,17,17,0,0,1,2,.06l2.25.1-.46-.42A2.24,2.24,0,0,1,80.6,10a.37.37,0,0,0,.17.64,1.07,1.07,0,0,0,1-.28,3.06,3.06,0,0,0,.92-2A.45.45,0,0,0,82.24,8l-3.13-.14a5.79,5.79,0,0,0-2.92.34,2,2,0,0,0-1.27,1.94,1.51,1.51,0,0,0,2,1c.27-.08.69-.3.61-.64s-.6-.33-.85-.25Z"/><path class="b" d="M77.34,7.21l-.14,0c.08,0,0,0-.07,0A.68.68,0,0,1,77,7.07a1.53,1.53,0,0,1-.43-.36,1.59,1.59,0,0,1-.35-1l-.59.58,2-.33a5,5,0,0,1,1.55-.11,1.29,1.29,0,0,1,.55.22,1.11,1.11,0,0,1,.32.4s0,0,0,.07a.58.58,0,0,1,0,.14c0,.14,0,.11,0,.21s0,.1,0,.15,0,0,0,0-.06.12,0,0a.53.53,0,0,1-.12.14.47.47,0,0,0,.21.75.94.94,0,0,0,1-.27,1.54,1.54,0,0,0,.29-1.63A2.11,2.11,0,0,0,80.1,4.85a4.8,4.8,0,0,0-2.26-.06l-2.54.42a.74.74,0,0,0-.59.58,2.51,2.51,0,0,0,2.15,2.53.9.9,0,0,0,.94-.45c.14-.35-.14-.61-.46-.66Z"/><path class="b" d="M79,4.49A2.28,2.28,0,0,1,77.5,2.28,2,2,0,0,1,78.07,1c.07-.06.14-.13.21-.18l.17-.12c.06,0,0,0,.07,0s.13-.07,0,0c.09,0,.09,0,0,0l.06,0h0c.05,0,0,0,0,0s0,0,.11,0L78.44.5a12.77,12.77,0,0,1,1.31,4.8c0,.28,1.48,0,1.45-.39A13,13,0,0,0,79.89.11c0-.09-.17-.11-.26-.11-1.39,0-3.16.71-3.51,2.2a2.46,2.46,0,0,0,1.7,2.86,1.53,1.53,0,0,0,1-.18c.14-.07.48-.3.17-.39Z"/><path class="b" d="M81.41,12.91l-.78.75a.37.37,0,0,0-.13.34.21.21,0,0,0,.1.14.34.34,0,0,0,.19.09,1.1,1.1,0,0,0,.54,0,1.06,1.06,0,0,0,.48-.25l.78-.75a.4.4,0,0,0,.14-.35.22.22,0,0,0-.11-.14.31.31,0,0,0-.18-.09,1.14,1.14,0,0,0-.55,0,1.19,1.19,0,0,0-.48.26Z"/><path class="b" d="M8.18,126.4c33.12-2.13,66.35-2.45,99.53-2q14,.16,27.93.55c.33,0,1.65-.6.94-.61q-25.07-.68-50.14-.7c-16.51,0-33,.21-49.51.79q-14.08.5-28.13,1.39c-.4,0-1.57.67-.62.61Z"/><path class="b" d="M136.27,124l.51-.09.29,0h.11l.47,0H138a2.74,2.74,0,0,1,1.52.46c.24.18.7,0,.94,0s.65-.29.42-.46a3.38,3.38,0,0,0-1.95-.6,10.47,10.47,0,0,0-2.43.22,1.84,1.84,0,0,0-.55.17c-.09,0-.25.14-.29.25-.08.28.49.22.6.2Z"/><path class="b" d="M6.72,125.58A3,3,0,0,0,6,127.72c0,1.14,0,2.27,0,3.41l.06,6.93c0,.36,1.46.11,1.45-.39l-.06-6.45,0-3.16a3.35,3.35,0,0,1,.58-2.51c.24-.25-.21-.35-.38-.35a1.39,1.39,0,0,0-1,.38Z"/><path class="b" d="M136.54,123.14a1.53,1.53,0,0,0-.61,2.38c.8,1,2.43.68,3.39.13a1.42,1.42,0,0,0,.47-.29l.05,0c-.34-.06-.44,0-.27.07a1.81,1.81,0,0,0,.32.41l.34.48c.4.55.79,1.12,1.16,1.69a41.39,41.39,0,0,1,2.19,3.82c.27.54,1.66,0,1.33-.62-.58-1.14-1.2-2.25-1.87-3.32-.34-.54-.69-1.07-1-1.6a13,13,0,0,0-1.13-1.52,1.43,1.43,0,0,0-1.7-.18c-.43.21-.8.58-1.31.58a.74.74,0,0,1-.74-.55.91.91,0,0,1,0-.49c0-.15,0-.15.09-.18.27-.1.55-.42.36-.71s-.71-.19-1-.08Z"/><path class="b" d="M141,118.67a44.14,44.14,0,0,0,1.81,11.46c.15.52,1.6.12,1.45-.39a43.65,43.65,0,0,1-1.81-11.46c0-.47-1.46-.19-1.45.39Z"/><path class="b" d="M29.07,87a3.84,3.84,0,0,0-.13,1.75s.1,0,.12,0a1.17,1.17,0,0,0,.27,0,1.3,1.3,0,0,0,.25-.1s.09-.05.08-.1a3.68,3.68,0,0,1,.12-1.68c0-.11-.24-.06-.28-.05a.9.9,0,0,0-.28.08s-.14,0-.15.1Z"/><path class="b" d="M29.07,86.91l.17,2.21c0,.06.1.1.15.11a.42.42,0,0,0,.27,0c.14,0,.32-.13.31-.29l-.18-2.22c0-.06-.1-.1-.14-.11a.53.53,0,0,0-.28,0c-.13,0-.32.13-.3.3Z"/><path class="b" d="M29.23,87.08a5.6,5.6,0,0,0,.56,1.69c.07.13.29.11.41.07a.55.55,0,0,0,.24-.12s.1-.09.08-.15A5.2,5.2,0,0,1,30,86.89c0-.06-.1-.09-.14-.1a.82.82,0,0,0-.27,0c-.11,0-.34.12-.32.27Z"/><path class="b" d="M50.12,91.43H48.76a.91.91,0,0,0-.51.14s-.1.05-.09.1.1,0,.13,0h1.36a.91.91,0,0,0,.51-.14s.1-.06.09-.1-.1,0-.13,0Z"/><path class="b" d="M37.07,92.86l-.45.93.71,0,0-.91a.24.24,0,0,0-.1-.19.4.4,0,0,0-.24-.07.49.49,0,0,0-.28.11.3.3,0,0,0-.12.2l0,.9a.22.22,0,0,0,.09.2.36.36,0,0,0,.2.06.42.42,0,0,0,.42-.23l.45-.93a.23.23,0,0,0-.22-.32.45.45,0,0,0-.47.22Z"/><path class="b" d="M77.69,110.12l28.94.48c.57,0,1.53-.84.55-.86l-28.93-.48c-.57,0-1.53.84-.56.86Z"/><path class="b" d="M67.91,109.34c-.1.74-.17,1.47-.2,2.22q0,.52,0,1a1.44,1.44,0,0,0,.22.93c.41.54,1.2.5,1.8.5h3.37a5.52,5.52,0,0,0,1.22,0,1.23,1.23,0,0,0,.87-.61,2.45,2.45,0,0,0,.13-1,21.49,21.49,0,0,0,0-2.27c0-.66-.13-1.33-.85-1.57a3.84,3.84,0,0,0-1.07-.15c-.43,0-.86,0-1.29,0a17,17,0,0,0-2.57.28c-.28,0-.68.35-.59.68s.57.33.85.29a14.22,14.22,0,0,1,3.32-.2,1.34,1.34,0,0,1,.53.07c.16.1.17.39.19.55a14.46,14.46,0,0,1,.06,1.74c0,.27,0,.55,0,.83s0,.31,0,.47a.59.59,0,0,0,0,.13c0,.18.08.11.36-.21h-.09a3.93,3.93,0,0,0-.84,0H69.6a.65.65,0,0,1-.34-.07c-.18-.15-.12-.55-.11-.74s0-.67,0-1c0-.66.11-1.32.2-2s-1.38-.52-1.47.12Z"/><path class="b" d="M64.45,105.91a61.7,61.7,0,0,0,12.6-.09c.32,0,.77-.23.79-.61s-.37-.54-.68-.5a59.41,59.41,0,0,1-12.22.1.92.92,0,0,0-.94.46.48.48,0,0,0,.45.64Z"/><path class="b" d="M64.11,117.79h13c.28,0,.8-.24.81-.57q.13-5.77-.29-11.54c0-.63-1.5-.29-1.45.39.28,3.75.36,7.51.27,11.27l.8-.57h-13c-.81,0-1.12,1-.14,1Z"/><path class="b" d="M16.66,126.12a5,5,0,0,0-.9,3.6c0,.1.2.14.27.15a2.69,2.69,0,0,0,2.53-1.36,3.62,3.62,0,0,0-.06-2.59c-.08-.26-.63-.14-.8-.09a1.37,1.37,0,0,0-.49.22c-.08,0-.19.15-.16.25a4,4,0,0,1,.2,2.11,1.62,1.62,0,0,1-.38.68s-.08.08,0,0,0,0,0,0l-.09.07s.07,0,0,0,0,0,0,0l.06,0c-.12,0,.07,0,.1,0s-.12,0,.06,0l.26.15a4.51,4.51,0,0,1,.78-3.27c.19-.26-.16-.33-.36-.32a1.87,1.87,0,0,0-.57.12,1,1,0,0,0-.4.25Z"/><path class="b" d="M25.76,125.56a3.17,3.17,0,0,0-.81,2.12,2.1,2.1,0,0,0,1.1,2,2,2,0,0,0,2.33-1.15,3.07,3.07,0,0,0,.18-2A2.1,2.1,0,0,0,27.15,125a1,1,0,0,0-1,.27.4.4,0,0,0,.19.68l.17.06c-.11,0,0,0,0,0l.12.09a.18.18,0,0,1,.07,0c-.05,0,0,0,0,0a2.56,2.56,0,0,1,.2.26.69.69,0,0,0,0,.1c0-.06,0,0,0,0a.49.49,0,0,1,0,.11,1.68,1.68,0,0,1,.09.32,1.06,1.06,0,0,1,0,.19s0,.19,0,.1a2.62,2.62,0,0,1-.06.74.75.75,0,0,1,0,.16c0,.1,0,0,0,0a.42.42,0,0,1,0,.1.89.89,0,0,1-.08.17.47.47,0,0,0-.05.1s0-.06,0,0l-.12.14c-.06.07.09-.06,0,0s-.09.1,0,0,0,0,0,0,0,0,.05,0,.19,0,.06,0h.09c-.07,0-.07,0,0,0s0,0,0,0,0,0,0,0l-.09-.07s0,0,0,0l-.11-.15,0-.07,0-.08a2.4,2.4,0,0,1-.12-.38,1.43,1.43,0,0,1,0-.22.22.22,0,0,1,0-.08s0-.13,0-.06a2.57,2.57,0,0,1,0-.48,1.84,1.84,0,0,1,0-.25s.05-.2,0-.14a2.67,2.67,0,0,1,.2-.46l.07-.11A1.84,1.84,0,0,1,27,126a.4.4,0,0,0-.18-.68,1,1,0,0,0-1,.28Z"/><path class="b" d="M37.17,125.47a1.72,1.72,0,0,0-1.08.78,5.82,5.82,0,0,0-.48,1.08,1.8,1.8,0,0,0,.35,2,1.89,1.89,0,0,0,2.42-.15,2.24,2.24,0,0,0,.68-1.81,3.34,3.34,0,0,0-.92-2.2c-.36-.38-1.74.16-1.35.57a2.93,2.93,0,0,1,.75,1.41,2.45,2.45,0,0,1-.07,1.4,1.35,1.35,0,0,1-.15.26l-.06.08s.05-.06,0,0-.14.11,0,0l0,0s-.09,0,0,0l.15,0h0s.08,0,.09,0-.08,0-.1,0-.05,0-.07-.05a1.22,1.22,0,0,1-.4-1.24,3.6,3.6,0,0,1,.33-.92c.06-.13.12-.26.19-.39l.05-.06,0,0s.07,0,0,0a1.14,1.14,0,0,1-.19.1c.22-.06.71-.27.63-.57s-.62-.23-.83-.18Z"/><path class="b" d="M47.45,125.31a2.44,2.44,0,0,0-1.4.7,2.59,2.59,0,0,0-.49,1,2.55,2.55,0,0,0,.29,2.41,1.47,1.47,0,0,0,1.22.43,2.11,2.11,0,0,0,2.16-2.42A2.67,2.67,0,0,0,49,126a1.37,1.37,0,0,0-1.31-.64,1.48,1.48,0,0,0-1,.35c-.23.24.21.25.35.25-.12,0,0,0,0,0l.14.08a1.13,1.13,0,0,1,.31.34,2.27,2.27,0,0,1,.24,1,3.32,3.32,0,0,1-.22,1.56,1.27,1.27,0,0,1-.15.26l-.1.11c-.09.09,0,0,0,0l0,0,.1-.05a1.32,1.32,0,0,1,.33-.08c.1,0,0,0,0,0a1,1,0,0,1-.35-.22,2.06,2.06,0,0,1-.38-1.86,3.44,3.44,0,0,1,.28-.91,1.38,1.38,0,0,1,.2-.33s.14-.13.08-.08a.24.24,0,0,0,.08-.06c0,.08-.34.13-.36.13a2.69,2.69,0,0,0,.55-.17c.08,0,.26-.13.29-.23.08-.26-.49-.18-.58-.16Z"/><path class="b" d="M57.83,125.12a1.79,1.79,0,0,0-1.43.53,3,3,0,0,0-.58.92,2,2,0,0,0,0,2,1.74,1.74,0,0,0,1.88.53,1.62,1.62,0,0,0,1-.8,3.13,3.13,0,0,0,.27-1,4.06,4.06,0,0,0-.5-2.37c-.06-.11-.3-.15-.4-.16a1.26,1.26,0,0,0-.57.11c-.26.12-.53.34-.37.64a3.48,3.48,0,0,1,.4,1.48,3.64,3.64,0,0,1,0,.73,1.89,1.89,0,0,1-.22.67s-.05.06,0,0v0c-.05,0-.05,0,0,0s0,0,0,0l.08,0c-.09,0,.17-.05.08,0l.1,0c-.08,0,0,0,.07,0h-.07s.15,0,0,0l0,0h-.06c.12,0,0,0,0,0l-.12-.07,0,0h0a2,2,0,0,1-.19-.22s0-.07,0,0a.14.14,0,0,1,0-.06.64.64,0,0,1-.06-.18,1.39,1.39,0,0,1,0-.73,2.91,2.91,0,0,1,.34-.79c0-.06.07-.12.11-.17l.05-.07c-.07.08,0,0,0,0l.06,0,0,0h0l-.14,0s-.27,0-.15,0a1.06,1.06,0,0,0,1-.42c.18-.31-.16-.45-.41-.49Z"/><path class="b" d="M66.75,125.48a4,4,0,0,0-.69,2.35,1.74,1.74,0,0,0,1.32,1.4,2.06,2.06,0,0,0,2.29-1.17,2.81,2.81,0,0,0,0-1.94,3.08,3.08,0,0,0-1.4-1.69,1.15,1.15,0,0,0-1,.13c-.2.14-.42.42-.12.59a2.55,2.55,0,0,1,1.22,2.45,1.74,1.74,0,0,1-.22.71s-.1.15-.06.1l-.07.06c-.05.06.08,0,0,0s.18-.06.1,0,.09,0,.11,0-.06,0,0,0-.15-.05,0,0l-.14-.06a1.2,1.2,0,0,1-.26-.21,1.35,1.35,0,0,1-.32-.63,3.21,3.21,0,0,1,.58-2c.16-.29-.14-.44-.4-.44a1.11,1.11,0,0,0-1,.4Z"/><path class="b" d="M77.42,124.6a3.66,3.66,0,0,0-1.7,1.6,3,3,0,0,0-.3,2.13,1.55,1.55,0,0,0,2,.9A2.09,2.09,0,0,0,79,127.39a5.19,5.19,0,0,0-.68-2.78c-.06-.12-.3-.17-.41-.17a1.13,1.13,0,0,0-.57.1c-.27.14-.52.37-.36.68a5.12,5.12,0,0,1,.56,1.88,2.44,2.44,0,0,1-.08.85,1.31,1.31,0,0,1-.16.31c.06-.09,0,0,0,.05l-.06.05c.11-.09,0,0,0,0s.13,0,0,0a.15.15,0,0,0-.07,0c-.13.06,0,0,0,0s-.1,0-.1,0l.08,0h0c.15,0,0,0,0,0h0l-.06,0s-.06,0,0,0l-.06-.06a.73.73,0,0,1-.16-.33,1.68,1.68,0,0,1-.05-.74,3,3,0,0,1,.09-.41,1.21,1.21,0,0,1,0-.18s0,.06,0,0a.42.42,0,0,1,0-.1,2.38,2.38,0,0,1,.23-.41.43.43,0,0,1,0-.07l0,0,.16-.18a1.21,1.21,0,0,1,.16-.16s.09-.08,0,0l.09-.07.2-.14.07,0c-.15.09,0,0,0,0,.22-.11.58-.4.36-.68s-.72-.19-1-.06Z"/><path class="b" d="M86.24,125.56a3.88,3.88,0,0,0-.72,2.24,1.55,1.55,0,0,0,1.17,1.42,3,3,0,0,0,2.51-.8,2,2,0,0,0,.59-1.88,5,5,0,0,0-1.34-2.29c-.06-.07-.3,0-.37,0a2.17,2.17,0,0,0-.56.13c-.13,0-.6.22-.43.42.77.86,1.73,2.2,1.08,3.38a1.71,1.71,0,0,1-.42.52l-.1.06h0a.3.3,0,0,0-.08,0,.35.35,0,0,1,.16-.06l.13,0c.08,0,0,0,0,0s.1,0,0,0h0a1.31,1.31,0,0,1-.85-1.2,3.61,3.61,0,0,1,.69-2.13c.13-.24-.52-.16-.59-.15-.26,0-.7.14-.84.4Z"/><path class="b" d="M96.51,125.24a3.94,3.94,0,0,0-.67,1.49,2.21,2.21,0,0,0,.14,1.56,1.44,1.44,0,0,0,2,.21,2,2,0,0,0,.68-1.6,3.84,3.84,0,0,0-.32-1.83c-.13-.3-.56-.28-.83-.21a1.18,1.18,0,0,0-.48.26c-.08.08-.19.22-.14.34A3.36,3.36,0,0,1,97,128a.14.14,0,0,0,0,.07s0-.06,0,0l0,.06s-.05.06,0,0a.91.91,0,0,1,.38-.19h.17c-.08,0,0,0,0,0s0,0,0,0l-.06,0,0,0,0,0-.08-.09,0-.06v0a1.25,1.25,0,0,1-.07-.26s0-.1,0-.14v-.07c0-.08,0,0,0,0a2.7,2.7,0,0,1,.07-.63,2.88,2.88,0,0,1,.57-1.26c.21-.28-.17-.48-.4-.48a1.16,1.16,0,0,0-1,.41Z"/><path class="b" d="M105.54,125.37a3.07,3.07,0,0,0-.36,1.92,1.48,1.48,0,0,0,1.31,1.13,2,2,0,0,0,1.84-1,1.8,1.8,0,0,0,.12-1.64,4.83,4.83,0,0,0-1.28-1.63.74.74,0,0,0-.5-.12,1,1,0,0,0-.54.2.56.56,0,0,0-.25.39.45.45,0,0,0,.17.37l0,0,.13.13a2.73,2.73,0,0,1,.23.25,3.26,3.26,0,0,1,.43.55l.08.13s0,0,0,0a.36.36,0,0,1,0,.09,1.86,1.86,0,0,1,.1.31l0,.18c0-.09,0,0,0,0s0,.08,0,.13-.05.18,0,.07a2.06,2.06,0,0,1-.12.26s0,0,0,.06.07-.1,0,0l-.1.12s-.06.06-.06.06.11-.08,0,0l-.1.08.07,0,0,0c-.09,0,.17-.05.08,0s-.13,0,0,0-.13,0,0,0h0c-.1,0,0,0,0,0l-.12,0s.09.06,0,0l-.07,0s0,0,0,0l-.06-.06-.08-.11s0-.12,0,0l-.06-.17,0-.15a.2.2,0,0,1,0-.07c0,.07,0,0,0,0a1.72,1.72,0,0,1,0-.39l0-.11c0-.1,0,.06,0,0l.06-.19c.06-.15.12-.29.19-.43.14-.32-.14-.59-.45-.62a.93.93,0,0,0-.94.44Z"/><path class="b" d="M22.81,130.73l0-.07h0l0,0h0l-.1,0h0l-.13,0h-.19l-.21,0-.2,0h0l-.38.13-.18.1a1.21,1.21,0,0,0-.14.1.44.44,0,0,0-.08.11.2.2,0,0,0,0,.11v.06a.11.11,0,0,0,.09.06.47.47,0,0,0,.17,0,1,1,0,0,0,.24,0,1.5,1.5,0,0,0,.29-.06l.19-.06a1.35,1.35,0,0,0,.3-.14l.1-.07a.13.13,0,0,0,.07-.13v0a.15.15,0,0,1,0-.07l-.06.07,0,0-.1.08,0,0-.14.07h0l-.17.07h0l-.19.06h0l-.19,0h0l-.18,0h-.2l-.08,0a.1.1,0,0,1,.05,0l0-.05v0a.1.1,0,0,0,.09.06.32.32,0,0,0,.17,0,1,1,0,0,0,.24,0l.29-.05.19-.06.3-.14.1-.08a.14.14,0,0,0,.07-.13Z"/><path class="b" d="M34,130.29H32.63a1.38,1.38,0,0,0-.57.11.88.88,0,0,0-.39.3.25.25,0,0,0,0,.31.58.58,0,0,0,.4.14h1.36A1.41,1.41,0,0,0,34,131a.83.83,0,0,0,.38-.29.24.24,0,0,0,0-.32.55.55,0,0,0-.39-.14Z"/><path class="b" d="M44.72,130.54a3.24,3.24,0,0,0-3.33-.26c-.26.13-.56.49-.33.78a.83.83,0,0,0,1,.13l.13-.06c.13,0-.2.07,0,0l.29-.08c-.24.07-.08,0,0,0h.3c-.23,0-.06,0,0,0l.3.05c.07,0,.05,0-.06,0l.07,0,.14,0,.14.06.07,0c.05,0,0,0,0,0s.1,0,.13.08l.12.08a.92.92,0,0,0,1-.07c.24-.21.36-.57.06-.79Z"/><path class="b" d="M52.44,130.68l.13-.12.08-.06s-.1.06,0,0l0,0,.07,0-.07,0,0,0-.07,0,0,0-.11,0h0s-.22,0-.13,0h0c.08,0-.12,0-.11,0h.13s-.12,0,0,0h0l.19,0a1.13,1.13,0,0,0,.45,0,2.6,2.6,0,0,0,.56-.17l.14-.07a1.07,1.07,0,0,0,.16-.14c0-.1,0-.12-.12-.14a2.72,2.72,0,0,0-1.47.06,2.78,2.78,0,0,0-1.3.69c-.05.06-.11.12,0,.18a.66.66,0,0,0,.37,0,2.17,2.17,0,0,0,.56-.13l.17-.06.24-.15Z"/><path class="b" d="M62.42,131.4c.21-.17.42-.34.64-.49l.18-.11.1-.06.1,0c.07,0,.06,0,0,0l.1,0c.06,0,.06,0,0,0s-.07,0,0,0h-.06l.1,0h0s.26,0,.07,0a.5.5,0,0,1,.17,0s0,0,0,0l.09,0,.17.06a1.35,1.35,0,0,1,.26.18.72.72,0,0,0,.38.07,1.89,1.89,0,0,0,.57-.13c.11,0,.63-.28.41-.46a2.52,2.52,0,0,0-2.22-.28,5.51,5.51,0,0,0-2.1,1.17c-.06,0-.19.14-.16.24s.19.13.26.14a1.64,1.64,0,0,0,1-.28Z"/><path class="b" d="M72.3,131.31l.14-.12a.24.24,0,0,0,.08-.06s-.09.07,0,0l.32-.23.16-.09c.08-.05-.12,0,0,0l.09,0,.08,0c.09,0-.15,0-.06,0a1,1,0,0,0,.18,0h0c.1,0-.07,0-.07,0h.1l.14,0,.07,0s-.09-.05,0,0l.15.08s.07.05,0,0,0,0,0,0a.69.69,0,0,1,.11.13.59.59,0,0,0,.4.14,1.26,1.26,0,0,0,.57-.11c.21-.1.58-.35.37-.62a1.93,1.93,0,0,0-1.82-.54,3.74,3.74,0,0,0-1.24.47,7.07,7.07,0,0,0-.88.64.37.37,0,0,0-.14.34.35.35,0,0,0,.28.22,1.27,1.27,0,0,0,1-.27Z"/><path class="b" d="M80,131.15a1.63,1.63,0,0,0,1.28.15,6.28,6.28,0,0,0,1.38-.48c.12,0-.12.05,0,0l-.08,0h0c.09,0-.06,0,0,0h.09l.09,0h0a.42.42,0,0,1,.14.09.52.52,0,0,1,.12.27c0,.09.21.1.25.1a1.59,1.59,0,0,0,.53-.08,1.41,1.41,0,0,0,.49-.2c.07,0,.19-.11.17-.21-.09-.71-1.11-.64-1.61-.56a3.46,3.46,0,0,0-.7.19,5.89,5.89,0,0,1-.58.24c.19-.05-.08,0-.11,0s.14,0,.08,0l-.07,0,.11,0h0s.17,0,.07,0h0a.85.85,0,0,1-.18-.1.78.78,0,0,0-.37,0,2.17,2.17,0,0,0-.56.13c-.09,0-.64.25-.44.4Z"/><path class="b" d="M92.37,130.81l.11-.13,0,0,0,0s0,0,0-.05l.13-.11.06,0c.06-.05-.12.08,0,0l.14-.08s.11-.06,0,0,0,0,0,0,.22-.08.08,0,0,0,.08,0h0l.17,0h.18c.08,0-.14,0,0,0h.07l.16,0s.08,0,0,0l.07,0,.17.07a1.21,1.21,0,0,0,1-.14c.18-.12.45-.39.13-.53a3.5,3.5,0,0,0-3.89,1c-.2.26.18.39.38.39a1.27,1.27,0,0,0,1-.39Z"/><path class="b" d="M102.9,130.79a.75.75,0,0,1,.15-.2l-.1.1.12-.11c.1-.08-.11.07-.06,0l.06,0,0,0c.06,0,0,0-.11.05l.08,0,.06,0-.13,0h.08l-.14,0H103l.16,0-.14,0a.9.9,0,0,1,.24.12.87.87,0,0,0,.48,0,1.21,1.21,0,0,0,.55-.19c.11-.07.26-.17.28-.31a.27.27,0,0,0-.15-.26,2,2,0,0,0-1.58-.15,2.08,2.08,0,0,0-1.31.9.24.24,0,0,0,0,.3.55.55,0,0,0,.39.14,1.42,1.42,0,0,0,.57-.12.76.76,0,0,0,.38-.28Z"/><path class="b" d="M108.64,125.48a13.63,13.63,0,0,0,4,8.17c.39.37,1.76-.18,1.34-.59a13.18,13.18,0,0,1-3.87-8c0-.52-1.51-.2-1.45.39Z"/><path class="b" d="M113.68,133a3.12,3.12,0,0,0-2.15,1.27,2.06,2.06,0,0,0-.24,1.77c0,.09.19.09.25.1a1.89,1.89,0,0,0,.53-.08,1.81,1.81,0,0,0,.5-.2c.05,0,.2-.12.17-.21a1.73,1.73,0,0,1-.08-.9v.06a2.09,2.09,0,0,1,.16-.54c0-.08.09-.16.14-.24a.57.57,0,0,1,.08-.13l0,0s.06-.07,0,0,0,0,0,0l.05,0,.1-.1.11-.08c0-.05,0,0,0,0l.07,0,.06,0c-.09,0,0,0,0,0s-.07,0-.08,0l.07,0-.1,0-.08,0h.08a2.69,2.69,0,0,0,.55-.17c.08,0,.26-.12.3-.22s-.51-.14-.57-.13Z"/><path class="b" d="M113.56,133.94a5.39,5.39,0,0,1,.3.52l-.06-.13a4,4,0,0,1,.38,1.42v-.15a.41.41,0,0,0,0,.11.42.42,0,0,0,.18.38.83.83,0,0,0,.49.12,1,1,0,0,0,.55-.21.6.6,0,0,0,.25-.39,4.48,4.48,0,0,0-.76-2.32.67.67,0,0,0-.42-.22,1.11,1.11,0,0,0-.57.1c-.27.15-.55.46-.34.77Z"/><path class="b" d="M111.88,136.3l2.21-.16a2.14,2.14,0,0,0,.57-.12,1.12,1.12,0,0,0,.4-.25c0-.07.1-.16,0-.24a.71.71,0,0,0-.38-.08l-2.21.17a1.87,1.87,0,0,0-.57.12,1.1,1.1,0,0,0-.4.24c-.05.07-.1.17,0,.24a.56.56,0,0,0,.38.08Z"/><path class="b" d="M.47,139.32a17.48,17.48,0,0,0,8.32,6.86,1,1,0,0,0,1-.28.41.41,0,0,0-.18-.69,16.41,16.41,0,0,1-7.83-6.53c-.35-.55-1.73,0-1.33.64Z"/><path class="b" d="M.39,138.69q47.37-1.06,94.77,0,13.22.3,26.42.76c.48,0,1.57-.67.6-.71q-47.36-1.65-94.76-1.18Q14.19,137.7,1,138c-.47,0-1.56.72-.59.7Z"/><path class="b" d="M120.86,139.66l3.64,7.71c.26.55,1.69.11,1.45-.38l-3.64-7.72c-.26-.55-1.68-.1-1.45.39Z"/><path class="b" d="M136.09,126.76l3.45,6.27a32.07,32.07,0,0,0,3.44,5.71c.43.5,1.81-.08,1.32-.65a32.59,32.59,0,0,1-3.44-5.7l-3.44-6.27c-.32-.58-1.7,0-1.33.64Z"/><path class="b" d="M143,139.25l11.75-.37a1.9,1.9,0,0,0,1-.27c.19-.15.23-.33-.08-.32l-11.75.37a1.83,1.83,0,0,0-1,.28c-.19.14-.24.32.08.31Z"/><path class="b" d="M142.37,136.08H153.6c.15,0,.62-.08.75,0s.19.48.2.71a5.46,5.46,0,0,1-.27,1.88c-.16.53,1.3.34,1.46-.17a6,6,0,0,0,.27-1.82c0-.45,0-1.06-.43-1.31a3.62,3.62,0,0,0-1.67-.14h-11c-.3,0-.81.1-1,.41s.12.44.4.44Z"/><path class="b" d="M142.22,132.25a2.93,2.93,0,0,0-.81,1.95.31.31,0,0,0,.16.31.79.79,0,0,0,.48.08,1.21,1.21,0,0,0,.55-.19c.1-.08.26-.2.26-.35a2.69,2.69,0,0,1,.17-.88l-.05.13a2.48,2.48,0,0,1,.35-.64l-.09.12a1.63,1.63,0,0,1,.17-.2.33.33,0,0,0-.17-.6,1,1,0,0,0-.54,0,1,1,0,0,0-.48.26Z"/><path class="b" d="M142.38,132.61a51.37,51.37,0,0,1,6.56.16c1,.09,2.07.19,3.1.37s2,.62,2.08,1.7c0,.38,1.5.08,1.45-.38-.26-2.22-3.63-2.17-5.25-2.33a53,53,0,0,0-7.35-.21c-.27,0-.81.1-1,.37s.13.33.37.32Z"/><path class="b" d="M145.46,131.85a.53.53,0,0,1,.21-.81,15.24,15.24,0,0,1,1.84-.2c.86-.09,2.69-.49,2.72.89,0,.43,1.45.16,1.45-.38,0-.8-.81-1.27-1.51-1.39a10.6,10.6,0,0,0-2.81.15,6.4,6.4,0,0,0-2.67.56c-.59.34-1.11,1.12-.58,1.74.31.37,1.7-.14,1.35-.56Z"/><path class="b" d="M155.56,135l.17.68a.18.18,0,0,0,.1.11.29.29,0,0,0,.18.07.69.69,0,0,0,.25,0,1.45,1.45,0,0,0,.29,0l.18-.07a1.11,1.11,0,0,0,.3-.17c.08-.08.18-.18.15-.3l-.17-.68a.23.23,0,0,0-.1-.12.36.36,0,0,0-.18-.07h-.25a1,1,0,0,0-.29,0l-.19.07a1.05,1.05,0,0,0-.29.17c-.08.07-.18.18-.15.3Z"/><path class="b" d="M147.67,121.3c-.35,1.6.06,3.18,0,4.79a9.17,9.17,0,0,1-1.71,4.58c-.13.21.52.12.57.11.25,0,.71-.14.86-.38a9.71,9.71,0,0,0,1.72-4.37c.1-1.67-.42-3.34-.06-5,.06-.27-1.35-.07-1.42.27Z"/><path class="b" d="M147.91,124.11a55.93,55.93,0,0,0,.54,5.78c.05.3,1.51,0,1.45-.39a56,56,0,0,1-.54-5.77c0-.27-1.46,0-1.45.38Z"/><path class="b" d="M147.74,129.94l.5.35a.88.88,0,0,0,.5.13,1,1,0,0,0,.29-.07.62.62,0,0,0,.25-.14l.13-.12a.5.5,0,0,0,.12-.29v-.14a.45.45,0,0,0-.17-.25l-.51-.35a.88.88,0,0,0-.5-.13.73.73,0,0,0-.29.07.75.75,0,0,0-.25.13l-.13.13a.7.7,0,0,0-.12.28v.15a.45.45,0,0,0,.18.25Z"/><path class="b" d="M155.35,134.4a2.14,2.14,0,0,0-.31,1.42c.05.43.19.83.26,1.26,0,0,0,.07,0,.11s0,0,0,0a2.18,2.18,0,0,1,0,.25l0,.24s0,.13,0,0a.36.36,0,0,1,0,.11,1.89,1.89,0,0,1-.09.21c0,.06.08-.09,0,0s-.1.07,0,0,0,0,0,0,.11-.06,0,0,.18-.05.05,0c.09,0,.16,0,0,0-.33,0-.76.24-.79.61s.37.53.68.51a1.82,1.82,0,0,0,1.68-1.87,5.35,5.35,0,0,0-.21-1.31,4,4,0,0,1-.09-.6,1.84,1.84,0,0,1,0-.33c0,.09,0-.07,0-.08s.09-.16,0-.07a.56.56,0,0,0,.11-.43.49.49,0,0,0-.31-.32,1,1,0,0,0-1,.27Z"/><path class="b" d="M143.36,139.63c.21.86-1.17,1.09-1.72,1.3a3,3,0,0,0-1.15.73,2,2,0,0,0-.34.53,4,4,0,0,1-.16.41,1.68,1.68,0,0,1-.43.12,2.23,2.23,0,0,0-.65.29,1.26,1.26,0,0,0-.53,1.29c.16,1.16.5,2.31.75,3.45.14.66,1.59.28,1.44-.39l-.38-1.75a12.4,12.4,0,0,1-.36-1.69.55.55,0,0,1,0-.26c0,.07-.18,0,0,0a2.21,2.21,0,0,0,.57-.17,1.64,1.64,0,0,0,1-.95,1.07,1.07,0,0,1,.63-.71c.41-.18.86-.27,1.27-.46.82-.37,1.7-1.16,1.46-2.15-.17-.65-1.62-.27-1.45.39Z"/><path class="b" d="M139.68,143.76c1.45.22,3.52-.54,4.67.6.46.46.64,1.14,1.14,1.55a2.54,2.54,0,0,0,1.63.45c3.74.08,7.49,0,11.23,0a1.6,1.6,0,0,0,1-.27c.13-.16.27-.34-.09-.34l-10.9,0a2,2,0,0,1-2.07-1,3.17,3.17,0,0,0-1-1.17c-1.35-.79-3-.14-4.42-.35a1.69,1.69,0,0,0-1,.18c-.1,0-.52.34-.17.39Z"/><path class="b" d="M153,139.3c1.94,1.46,4.13,3.19,4.44,5.76,0,.34.61.34.85.28s.64-.32.6-.67c-.33-2.75-2.7-4.63-4.76-6.18-.49-.37-1.78.33-1.13.81Z"/><path class="b" d="M141.56,143.32a5.57,5.57,0,0,0,1.73.05,6.51,6.51,0,0,1,1.52,0,1.63,1.63,0,0,1,1,.71,4.85,4.85,0,0,0,1.06,1.24.94.94,0,0,0,1-.09c.24-.19.37-.54.07-.75a5.67,5.67,0,0,1-1-1.2,2.57,2.57,0,0,0-1.54-.94c-1.14-.25-2.31.21-3.4,0a.92.92,0,0,0-.95.44c-.16.35.15.55.45.62Z"/><path class="b" d="M110.37,127a120.41,120.41,0,0,1,24,.39,1.22,1.22,0,0,0,1-.27c.15-.21.22-.49-.14-.53a124.34,124.34,0,0,0-24.7-.41c-.72.06-1.2.91-.2.82Z"/><path class="b" d="M40.22,121l-1,.38c-.27.1-.68.32-.59.68s.59.36.86.29c3.16-.78,6.34-1.48,9.53-2.12.29,0,.68-.34.6-.68s-.58-.35-.86-.29q-4.78.95-9.54,2.12l.27,1,1-.37c.28-.1.69-.32.6-.68s-.6-.39-.86-.3Z"/><path class="b" d="M50,120l42.89-1c.82,0,1.12-1.08.13-1l-42.89,1C49.3,119,49,120,50,120Z"/><path class="b" d="M92.48,118.82q6.36.77,12.77,1c.28,0,.82-.1,1-.38s-.13-.36-.38-.37q-6.24-.25-12.45-1a1.4,1.4,0,0,0-1,.28c-.18.19-.2.42.13.46Z"/><path class="b" d="M50.63,110.72c.56,0,1.53-.85.55-.85-.56,0-1.53.85-.55.85Z"/><path class="b" d="M50.49,109.93a80.91,80.91,0,0,0-11.64,2.39c-.23.06-.71.27-.62.58s.61.26.82.2a78.65,78.65,0,0,1,11.26-2.32c.26,0,.78-.18.82-.51s-.41-.37-.64-.34Z"/><path class="b" d="M123.22,88.36c.09,0,0,0,0,0s0-.1,0,0a1,1,0,0,1,0-.18c0,.09,0,0,0,0a.36.36,0,0,1,0-.11l0-.1s0,.06,0,0l.06-.1c.06-.11-.08.06,0,0l.08-.07s-.08,0,0,0,.22-.17.27-.16-.11.06,0,0l.26-.14a2.3,2.3,0,0,0,1-.88,1.77,1.77,0,0,0,.21-1.21c0-.12-.19-.2-.29-.22a1,1,0,0,0-.54,0c-.25.07-.68.26-.62.59a1.15,1.15,0,0,1,0,.52s0,.1-.05.15,0,0,0,0a1.14,1.14,0,0,1-.15.23c.07-.09,0,0,0,0s-.14.11,0,0l-.26.17s-.18.1,0,0l-.17.1-.34.18a1.76,1.76,0,0,0-.81,1,.85.85,0,0,0,.36,1,.79.79,0,0,0,.48.06,1.25,1.25,0,0,0,.55-.19c.22-.15.4-.41.11-.6Z"/><path class="b" d="M124.7,85.23a1.4,1.4,0,0,0-1.44.77,1.17,1.17,0,0,0,.15,1.22,3.9,3.9,0,0,0,1,.78,1.08,1.08,0,0,1,.24.18s0,0,0,0a.46.46,0,0,0,.07.07.76.76,0,0,1,.08.11l.08.12c-.07-.11,0,0,0,.07s0,.15,0,0a.5.5,0,0,1,0,.17.37.37,0,0,0,.18.36.78.78,0,0,0,.49.12.85.85,0,0,0,.8-.59A1.29,1.29,0,0,0,126,87.5a6.26,6.26,0,0,0-1-.67l-.19-.15c-.1-.07,0,.07,0,0l-.08-.09-.07-.11c-.07-.11,0,.09,0,0l0-.09c0-.12,0,0,0,0a1.36,1.36,0,0,1,0-.2s0,.13,0,0a.41.41,0,0,0,0-.09l0,.08,0,0s-.14.12-.05,0l-.1.06-.11,0-.13,0c-.13,0-.16,0-.09,0a.92.92,0,0,0,.94-.45c.14-.33-.12-.57-.44-.61Z"/><path class="b" d="M123.17,88.23l.28.36.1.08a.57.57,0,0,0,.22.07H124a.9.9,0,0,0,.28,0,2.17,2.17,0,0,0,.62-.26c.08,0,.16-.12.24-.18l.11-.11a.42.42,0,0,0,.11-.18.24.24,0,0,0-.09-.32.4.4,0,0,0-.18-.1,1,1,0,0,0-.55,0l-.19.06a.94.94,0,0,0-.29.2.43.43,0,0,1-.12.11l.13-.1-.13.09.17-.09-.12.05.18-.07-.11,0,.78.12-.28-.36a.32.32,0,0,0-.17-.11.46.46,0,0,0-.23,0,.65.65,0,0,0-.28,0,1,1,0,0,0-.29.08l-.16.09a.77.77,0,0,0-.22.22l0,.12a.31.31,0,0,0,.06.23Z"/><path class="b" d="M124.82,87.25a4.71,4.71,0,0,0,.21-1,4.92,4.92,0,0,0,0-1c0-.14-.19-.26-.31-.31a1,1,0,0,0-.56,0,.68.68,0,0,0-.58.71,2.85,2.85,0,0,1,0,.29v-.15a3.79,3.79,0,0,1-.12,1.3l0-.14s0,.08,0,.12a.45.45,0,0,0,0,.42.63.63,0,0,0,.41.23,1.05,1.05,0,0,0,.58-.1.7.7,0,0,0,.36-.36Z"/><path class="b" d="M125,85v-.51a.26.26,0,0,0,0-.19.31.31,0,0,0-.13-.15.44.44,0,0,0-.22-.07.62.62,0,0,0-.27,0l-.2,0a1.58,1.58,0,0,0-.35.16l-.12.12a.41.41,0,0,0-.13.25v.51a.21.21,0,0,0,0,.19.37.37,0,0,0,.13.15.65.65,0,0,0,.22.08.82.82,0,0,0,.27,0l.2,0a1.39,1.39,0,0,0,.35-.16l.13-.12A.47.47,0,0,0,125,85Z"/><path class="b" d="M22.7,89.08l1.68-2L23,87.32c0,.53.55.82,1,1s1,.51.73,1c0,.1.06.17.14.2a.9.9,0,0,0,.46,0c.28,0,.71-.15.84-.44.27-.57-.34-1.06-.79-1.29s-.88-.38-.89-.88c0-.2-.52-.15-.61-.13a1.4,1.4,0,0,0-.78.35l-1.68,2c-.22.25.18.33.36.32a1.42,1.42,0,0,0,1-.36Z"/><path class="b" d="M23.9,89a.61.61,0,0,1,0-.33.93.93,0,0,1,.05-.1s.11-.13.07-.1l-1.25.19a7.25,7.25,0,0,0,2.39,1.07,1.34,1.34,0,0,0,.81-.15c.13-.07.41-.21.36-.41a1.61,1.61,0,0,0-.79-1c-.33-.23-.75-.46-.91-.84a4,4,0,0,1-.05-1.68.47.47,0,0,0-.11-.36c-.2-.2-.6-.14-.83-.08a1.22,1.22,0,0,0-.67.38c-.07.11-.12.28,0,.36A1.09,1.09,0,0,0,24,86c.09,0,.67-.37.4-.53a.17.17,0,0,1-.08.22l-.48.23h0l-.54,0h0l-.22-.09c.11.07,0,.39,0,.51s0,.48-.05.72a1.61,1.61,0,0,0,.44,1.16c.44.44,1.24.67,1.38,1.31L26.09,89a5.84,5.84,0,0,1-1.93-.89,1.19,1.19,0,0,0-1.25.19,1.18,1.18,0,0,0-.46,1.08c0,.11.19.16.27.17a1.4,1.4,0,0,0,.54,0c.21-.06.67-.22.64-.51Z"/><path class="b" d="M22.44,84.11a4,4,0,0,1,.17,1.64v0a.08.08,0,0,0,0,.1.16.16,0,0,0,.12.07,1.19,1.19,0,0,0,.46,0,1.78,1.78,0,0,0,.55-.18l.14-.07A.46.46,0,0,0,24,85.5a4.11,4.11,0,0,0-.15-1.78c0-.1-.18-.12-.26-.12a1.35,1.35,0,0,0-.53.06,1.65,1.65,0,0,0-.49.21c-.07,0-.2.14-.17.24Z"/><path class="b" d="M22.51,88.72a8.22,8.22,0,0,1,2-2.86l-1.38.26,2.39,3.43c.14.19.6.06.78,0s.78-.25.67-.4c-.8-1.14-1.6-2.28-2.39-3.43-.1-.15-.44-.08-.58,0a1.64,1.64,0,0,0-.8.31,8.6,8.6,0,0,0-2.09,3c-.09.23.49.13.57.11a2.51,2.51,0,0,0,.55-.17c.1,0,.26-.11.3-.21Z"/><path class="b" d="M82.5,75.52A5.21,5.21,0,0,0,85,78.1a.58.58,0,0,0,.51-.06c.1-.06.22-.21.07-.28a4.91,4.91,0,0,1-2.37-2.43c-.06-.14-.29-.11-.41-.08s-.38.13-.31.27Z"/><path class="b" d="M85.31,78.18c-.74,4.47.51,9-.45,13.47,0,.19.67.08.72-.12,1-4.45-.29-9,.45-13.47,0-.2-.68-.08-.72.12Z"/><path class="b" d="M112.33,78.14a8.77,8.77,0,0,1,2.47,1.54c.23.2.87-.14.57-.41a9.27,9.27,0,0,0-2.62-1.6.49.49,0,0,0-.51.14.2.2,0,0,0,.09.33Z"/><path class="b" d="M114.83,79.9a56.94,56.94,0,0,0-.3,10.92c0,.18.74,0,.72-.19a56.08,56.08,0,0,1,.3-10.84c0-.23-.69-.09-.72.11Z"/><path class="b" d="M49.75,76.65a6.33,6.33,0,0,1,1.85,1.44c.11.13.36.09.49,0s.3-.19.18-.32a6.46,6.46,0,0,0-2-1.53.6.6,0,0,0-.52.06c-.09.08-.21.24,0,.32Z"/><path class="b" d="M51.3,78a26.12,26.12,0,0,0-.6,7c0,2.31,0,4.61.15,6.92,0,.24.74.09.73-.2-.11-2.36-.16-4.71-.15-7.07a25.47,25.47,0,0,1,.6-6.69c.07-.27-.66-.17-.73.09Z"/><path class="b" d="M9.33,138.49a13.17,13.17,0,0,0,3.1,3.26c.1.08.35,0,.46-.05s.32-.12.22-.19a12.93,12.93,0,0,1-3-3.21c-.11-.17-.77.12-.73.19Z"/><path class="b" d="M14.52,139.14l2.82,2.3c.11.09.35,0,.47,0s.31-.13.21-.22l-2.82-2.3c-.11-.09-.35,0-.47,0s-.31.13-.21.22Z"/><path class="b" d="M21.23,138a5.54,5.54,0,0,0,2.26,3.45.51.51,0,0,0,.48,0c.06,0,.33-.19.2-.29A5.3,5.3,0,0,1,22,137.78c-.05-.24-.78-.06-.73.2Z"/><path class="b" d="M27.09,138.54l1.7,2.56c.2.29.88,0,.66-.33l-1.69-2.56c-.2-.29-.88,0-.67.33Z"/><path class="b" d="M34.51,138a8.25,8.25,0,0,0,1.41,2.61.42.42,0,0,0,.5.06c.12-.06.28-.23.17-.38a7.63,7.63,0,0,1-1.35-2.49c-.06-.17-.28-.19-.43-.15s-.35.18-.3.35Z"/><path class="b" d="M41.48,138.58a12,12,0,0,0,1.78,2.68.42.42,0,0,0,.5.06c.12-.06.29-.25.17-.39a11.72,11.72,0,0,1-1.79-2.68c-.08-.16-.37-.12-.49-.06a.29.29,0,0,0-.17.39Z"/><path class="b" d="M48.18,138a7.2,7.2,0,0,0,1.67,3.17.41.41,0,0,0,.48.05c.12-.06.3-.22.18-.36a7,7,0,0,1-1.6-3c-.08-.32-.8-.13-.73.19Z"/><path class="b" d="M55.47,138.14a14.33,14.33,0,0,0,1.35,3.08c.09.16.77-.12.72-.2A14.47,14.47,0,0,1,56.19,138c0-.15-.76.06-.72.19Z"/><path class="b" d="M63,138.59a4,4,0,0,0,1.21,3.18.44.44,0,0,0,.49,0c.09-.05.31-.22.18-.34a3.76,3.76,0,0,1-1.16-2.95c0-.34-.7-.22-.72.07Z"/><path class="b" d="M70.28,138.31a5,5,0,0,0,1.57,2.95.42.42,0,0,0,.48.05c.1-.05.31-.23.18-.36A4.84,4.84,0,0,1,71,138.12c0-.18-.31-.17-.42-.14s-.33.16-.3.33Z"/><path class="b" d="M78.47,137.87a4.36,4.36,0,0,0,1.66,4.21c.25.19.89-.16.56-.41a4,4,0,0,1-1.49-3.86c.07-.35-.67-.26-.73.06Z"/><path class="b" d="M84.9,139.3a6.29,6.29,0,0,0,1.7,3c.16.16.84-.11.67-.27a6.13,6.13,0,0,1-1.64-3c0-.21-.78,0-.73.2Z"/><path class="b" d="M91.9,138.48a6.65,6.65,0,0,0,2.59,3.89c.2.15.87-.15.57-.36a6.35,6.35,0,0,1-2.43-3.72c-.06-.27-.79-.09-.73.19Z"/><path class="b" d="M101.27,139.33a2.58,2.58,0,0,0,1.72,2.58.82.82,0,0,0,.46-.06s.32-.15.22-.18a2.52,2.52,0,0,1-1.68-2.53c0-.07-.71,0-.72.19Z"/><path class="b" d="M108.53,139a4,4,0,0,0,1.77,3.77c.12.08.34,0,.46,0s.33-.14.22-.21a3.86,3.86,0,0,1-1.72-3.72c0-.08-.7,0-.73.2Z"/><path class="b" d="M115.47,139.66a8.22,8.22,0,0,0,1.8,3.67c.2.24.9-.05.67-.32a7.91,7.91,0,0,1-1.75-3.55c-.06-.32-.79-.13-.72.2Z"/></svg>